<?xml version="1.0" encoding="UTF-8"?>
<svg id="Layer_1" data-name="Layer 1" xmlns="http://www.w3.org/2000/svg" xmlns:xlink="http://www.w3.org/1999/xlink" viewBox="0 0 1068.23 435.99">
  <defs>
    <style>
      .cls-1 {
        fill: url(#linear-gradient);
      }

      .cls-2 {
        fill: #f3f4f6;
      }
    </style>
    <linearGradient id="linear-gradient" x1="109.69" y1="149.95" x2="943.46" y2="149.95" gradientUnits="userSpaceOnUse">
      <stop offset="0" stop-color="aqua"/>
      <stop offset=".01" stop-color="#00fffb"/>
      <stop offset=".1" stop-color="#00ffe9"/>
      <stop offset=".19" stop-color="#0fd"/>
      <stop offset=".28" stop-color="#00ffda"/>
      <stop offset=".77" stop-color="#f3f4f6"/>
      <stop offset="1" stop-color="#ff8c94"/>
    </linearGradient>
  </defs>
  <path class="cls-1" d="M453.02,216.25c-3.21,10.2-6.19,18.13-8.93,23.8-2.74,5.67-6.52,10.77-11.33,15.3-4.82,4.53-10.67,7.65-17.57,9.35-6.89,1.7-15.82,2.55-26.78,2.55-15.87,0-27.77-1.04-35.7-3.12-3.21-.75-5.57-1.84-7.08-3.26-1.51-1.42-2.27-3.64-2.27-6.66v-22.67c0-5.48,2.64-8.22,7.93-8.22,1.32,0,3.97.24,7.93.71,3.97.47,7.56.71,10.77.71,10.01,0,13.41-4.06,10.2-12.18l-48.73-120.99c-1.32-3.21-1.37-5.9-.14-8.08,1.23-2.17,3.54-3.26,6.94-3.26h40.8c6.23,0,10.2,2.93,11.9,8.78l15.3,54.69,8.78,37.68h1.13l6.23-37.68,10.77-54.69c1.13-5.86,4.91-8.78,11.33-8.78h39.67c3.4,0,5.81,1.09,7.23,3.26,1.42,2.17,1.65,4.86.71,8.08l-39.1,124.67ZM509.39,233.25c-6.8,0-10.2-3.4-10.2-10.2V42.85c0-6.8,3.4-10.2,10.2-10.2h71.12c28.33,0,49.63,5.76,63.89,17.28,14.26,11.52,21.39,30.32,21.39,56.38s-7.13,44.86-21.39,56.38c-14.26,11.52-35.56,17.28-63.89,17.28h-20.12v43.07c0,6.8-3.4,10.2-10.2,10.2h-40.8ZM579.66,128.98c8.69,0,14.92-1.75,18.7-5.24,3.78-3.5,5.67-9.3,5.67-17.43s-1.89-13.93-5.67-17.43c-3.78-3.49-10.01-5.24-18.7-5.24h-19.27v45.33h19.27ZM807.46,188.77c6.04-2.46,10.11-.47,12.18,5.95l5.67,17.57c1.7,5.1-.28,9.16-5.95,12.18-15.87,8.12-34.1,12.18-54.69,12.18-27.96,0-49.44-6.85-64.46-20.54-15.02-13.69-22.53-33.48-22.53-59.36s7.08-44.96,21.25-58.93c14.17-13.98,33.34-20.97,57.52-20.97s41.65,6.8,54.68,20.4c13.03,13.6,19.55,31.92,19.55,54.97v13.6c0,6.42-3.21,9.63-9.63,9.63h-85.29c4.16,14.36,15.68,21.53,34.57,21.53,12.47,0,24.84-2.74,37.12-8.22ZM741.02,123.32c-3.87,4.53-6.28,11.71-7.23,21.53h45.62v-1.98c0-17.57-7.18-26.35-21.53-26.35-7.37,0-12.99,2.27-16.86,6.8ZM911.73,128.42v52.13c0,4.72.99,7.98,2.97,9.78,1.98,1.79,5.43,2.69,10.34,2.69.76,0,2.31-.14,4.68-.42s4.3-.42,5.81-.42c5.29,0,7.93,2.93,7.93,8.78v22.67c0,3.02-.76,5.24-2.27,6.66-1.51,1.42-3.87,2.5-7.08,3.26-7.18,1.7-16.15,2.55-26.92,2.55-18.51,0-32.02-3.73-40.52-11.19-8.5-7.46-12.75-20.07-12.75-37.83v-58.65h-9.07c-6.42,0-9.63-3.21-9.63-9.63v-22.1c0-6.42,3.21-9.63,9.63-9.63h9.63v-33.43c0-5.67,3.31-8.5,9.92-8.5h36.83c6.61,0,9.92,2.83,9.92,8.5v33.43h22.67c6.42,0,9.63,3.21,9.63,9.63v22.1c0,6.42-3.21,9.63-9.63,9.63h-22.1ZM321.13,68.43c0-6.43-1.4-12.52-4.02-18.19-3.4-7.37-9.57-12.75-17.29-15.12-3.94-1.21-7.86-1.73-11.74-2.28h-6.83c-.91.27-1.78.37-3.12.57-11.85.73-23.67,6.64-29.54,17.51l-33.22,61.48-32.06-59.91c-5.89-11-16.81-17.88-29.15-19.02l-3.31-.33c-.18-.02-.74-.26-.71-.3h-7.54c-3.58.72-7.24.95-10.9,2.04-9.7,2.88-16.86,10.2-19.68,19.86-1.42,4.87-2.33,9.62-2.33,14.85v133.24c-.01,10.53,3.73,21.09,13.08,26.37,8.71,4.92,19.02,5.3,28.18,1.51,5.72-2.36,10-6.3,12.76-11.82,4.61-9.21,4.13-20.54,3.41-30.72-.93-13.15-1.09-25.95.25-39.04.56-5.51,1.28-10.62,2.91-16.04,6.76,7.17,11.72,15.17,15.84,23.89,2.29,4.83,3.99,9.55,5.92,14.55.81,2.11,3.45,3.58,5.79,2.78,10.96-3.78,22.76-4.37,33.79-.39,2.9,1.05,6.25.53,7.39-2.83,1.06-3.14,2.11-6.29,3.4-9.54,4.44-11.21,10.45-21.48,18.71-30.6,2.85,12.41,4.05,30.91,3.38,43.21l-.68,12.44c-.7,12.92-2.02,26.23,6.63,37.15,2.48,3.14,5.78,5.4,9.53,6.96,9.41,3.92,20.17,3.27,28.89-1.95,8.04-4.82,12.25-15.11,12.25-24.16v-13.89h0s0-21.83,0-21.83h0v-26.62s0-.08,0-.12v-9.6s0-.08,0-.12v-63.98Z"/>
  <g>
    <path class="cls-2" d="M307.18,406.26c-5.79.16-8.05-5.57-8.27-13.47-.91-32.9,19.81-83.77,42.34-126.27-5.68,4.11-12.15,8.24-20.72,12.68-.52.28-1.04.56-1.83.58-.53.01-1.32-.23-1.36-1.54-.01-.53.48-1.59,1.78-2.16,12.96-7.47,20.68-14.26,28.13-20.79,20.57-37.18,41.38-65.67,46.91-65.82,2.11-.06,3.17.44,3.21,1.75.23,8.42-22.24,43.54-40.65,63.54-13.72,27.77-51.06,106.23-50.2,137.55.11,3.95,1.23,6.55,3.87,6.48,14.74-.41,42.51-63.06,46.34-96.09-10.08-2.62-14.68-7.23-14.8-11.44-.11-3.95,3.74-7.48,10.59-7.67,3.68-.1,8,3.47,8.18,10.05.06,2.1-.15,4.22-.34,6.86,3.72,1.21,8.22,1.88,13.74,1.73,37.9-1.05,105.7-25.57,114.51-30.81.52-.28,1.04-.56,1.83-.58.53-.01,1.32.23,1.36,1.54.01.53-.48,1.59-1.78,2.16-9.59,5.53-75.06,28.67-114.8,29.77-5.79.16-10.8-.23-15.04-.9-5.04,36.75-37.73,102.44-53,102.86ZM357.3,294.53c-.1-3.68-.69-5.77-2.26-5.73-1.05.03-1.82.84-1.79,1.89.09,3.42,1.48,6.02,3.91,8.05.22-1.58.18-2.9.15-4.22Z"/>
    <path class="cls-2" d="M484.65,318.67c.15,5.53,4.19,8.58,13.13,8.33,28.95-.8,102.26-45.22,128.73-59.38.52-.28,1.04-.56,1.83-.58.53-.01,1.32.23,1.36,1.54.01.53-.48,1.59-1.78,2.16-33.74,18.05-103.47,58.42-133.74,59.26-11.84.33-19.09-4.48-19.43-16.85-.94-34.21,66.32-145.1,102.63-146.1,3.42-.09,5.59,2.22,5.71,6.43.11,3.95-1.07,8.98-4.05,15.65-10.68,23.47-42,52.78-77.34,79.56-10.49,20.83-17.35,39.46-17.06,49.98ZM575.83,186.84c2.73-6.13,3.92-10.64,3.85-13.27-.04-1.32-.58-2.09-1.64-2.06-15.26.42-49.02,46.39-71.57,88.36,32.22-25.38,59.93-51.96,69.36-73.02Z"/>
    <path class="cls-2" d="M615.96,295.56c-.62-22.63,17.64-38.41,23.96-38.59.53-.01,1.06.23,1.59.48,1.43-5.31,5.79-9.64,11.58-9.8,4.47-.12,8.54,3.98,8.78,12.93.15,5.53-1.48,13.21-4.7,20.67,6.55,8.25,17.43,11.11,29.79,10.77,32.9-.91,77.83-23.74,86.39-28.46.52-.28,1.04-.56,1.83-.58.53-.01,1.32.23,1.36,1.54.01.53-.48,1.59-1.78,2.16-9.85,5.54-57.2,26.86-92.73,27.84-10.79.3-20.58-1.28-28.08-5.81-6.24,12.55-15.15,23.59-23.57,23.83-10.26.28-14.15-6.98-14.43-16.98ZM640.85,262.48v-.53c-1.79,2.42-5.4,5.42-8.75,7.88-4.23,8.81-9.14,21.85-8.93,29.48.15,5.26,1.83,8.9,5.51,8.8,7.37-.2,15.51-10.7,21.23-22.71-5.4-4.85-8.77-12.4-9.06-22.93ZM658.1,257.52c-.1-3.68-1.21-5.76-2.53-5.72-2.9.08-4.63,4.08-4.48,9.34.16,5.79,1.09,10.77,3.04,14.66,2.44-6.91,4.1-13.81,3.97-18.28Z"/>
    <path class="cls-2" d="M792.81,300.43c-.32-11.58,5.53-28.6,5.3-37.02-.08-2.9-.66-4.72-2.5-4.67-6.58.18-20.85,7.95-20.85,7.95-.52.28-1.04.56-1.83.58-.53.01-1.32-.23-1.36-1.54-.01-.53.48-1.59,1.78-2.16,3.63-1.94,15.59-7.54,24.02-7.77,7.89-.22,10.62,3.13,10.75,7.87.27,9.74-6.14,25.45-5.87,35.45.12,4.21,1.25,7.08,3.35,7.02,4.21-.12,14.94-12,22-23.78.83-7.93,1.96-14.8,1.9-17.17-.06-2.1,3.55-4.84,5.92-4.9,1.32-.04,2.39.72,2.43,2.3.1,3.68-1.11,7.41-2.05,11.64-1.62,7.95-3.73,17.49-3.46,27.22.12,4.47.99,7.35,3.36,7.28,5-.14,17.2-16.01,25.45-32.04-7.03-6.65-10.69-15.24-10.88-22.09-.21-7.63,3.59-13.27,12.01-13.5,6.58-.18,9.35,4.75,9.54,11.85.18,6.58-1.73,13.74-4.43,20.66,6.01,8,15.88,12.47,28.51,12.12,33.69-.93,79.93-23.8,87.72-27.97.52-.28,1.04-.56,1.83-.58.53-.01,1.32.23,1.36,1.54.01.53-.48,1.59-1.78,2.16-10.12,5.55-56.68,26.58-91.94,27.56-11.84.33-21.43-3.36-28.42-8.7-8.74,17.36-23.07,32.5-29.91,32.69-5.79.16-7.81-6.11-8.03-14.26-.07-2.63.13-5.01.05-7.64-8.12,11.28-18.67,20.27-23.4,20.4-7.89.22-10.39-4.45-10.56-10.5ZM868.65,252.24c-.1-3.68-1.22-6.02-3.85-5.95-2.37.06-4.68,2.24-4.58,5.92.18,6.58,1.66,12.33,4.16,17.01,2.72-6.4,4.4-12.24,4.27-16.97Z"/>
  </g>
</svg>