<?xml version="1.0" encoding="UTF-8"?>
<svg id="Layer_1" data-name="Layer 1" xmlns="http://www.w3.org/2000/svg" xmlns:xlink="http://www.w3.org/1999/xlink" viewBox="0 0 821.03 732.26">
  <defs>
    <style>
      .cls-1 {
        fill: url(#linear-gradient);
      }
    </style>
    <linearGradient id="linear-gradient" x1="95.4" y1="198.57" x2="695.97" y2="523.79" gradientUnits="userSpaceOnUse">
      <stop offset="0" stop-color="aqua"/>
      <stop offset=".01" stop-color="#00fffb"/>
      <stop offset=".1" stop-color="#00ffe9"/>
      <stop offset=".19" stop-color="#0fd"/>
      <stop offset=".28" stop-color="#00ffda"/>
      <stop offset=".77" stop-color="#f3f4f6"/>
    </linearGradient>
  </defs>
  <path class="cls-1" d="M731.65,169.85c0-19.54-4.26-38.04-12.21-55.25-10.34-22.4-29.06-38.73-52.5-45.91-11.96-3.67-23.87-5.26-35.66-6.93h-20.73c-2.75.81-5.42,1.13-9.49,1.72-35.98,2.22-71.89,20.17-89.73,53.19l-100.9,186.73-97.39-181.96c-17.89-33.42-51.05-54.31-88.54-57.77l-10.04-1.02c-.55-.06-2.24-.8-2.16-.9h-22.91c-10.87,2.19-21.99,2.88-33.11,6.18-29.46,8.75-51.22,30.98-59.77,60.32-4.31,14.79-7.09,29.22-7.09,45.1l-.04,404.72c0,31.99,11.36,64.07,39.77,80.1,26.46,14.93,57.78,16.09,85.59,4.6,17.38-7.18,30.38-19.14,38.77-35.9,14.01-27.99,12.56-62.39,10.37-93.32-2.83-39.94-3.31-78.81.76-118.6,1.72-16.75,3.89-32.25,8.83-48.71,20.54,21.77,35.59,46.08,48.11,72.56,6.94,14.68,12.13,29.02,17.98,44.21,2.47,6.42,10.49,10.88,17.57,8.44,33.28-11.49,69.14-13.28,102.65-1.19,8.81,3.18,18.99,1.61,22.44-8.59,3.23-9.54,6.4-19.09,10.32-28.98,13.49-34.04,31.73-65.26,56.82-92.95,8.65,37.71,12.3,93.9,10.28,131.26l-2.05,37.78c-2.13,39.25-6.13,79.68,20.12,112.85,7.54,9.53,17.57,16.39,28.96,21.13,28.58,11.9,61.28,9.94,87.77-5.94,24.42-14.63,37.19-45.9,37.2-73.38v-42.2h0s0-66.32,0-66.32h0v-80.84c0-.12.02-.24.02-.36v-29.17c0-.13,0-.25,0-.38v-194.34Z"/>
</svg>